HIERARCHY
ROOT Hips
{
	OFFSET 0.000000 0.000000 0.000000
	CHANNELS 6 Xposition Yposition Zposition Zrotation Yrotation Xrotation 
	JOINT LHipJoint
	{
		OFFSET 0.000000 0.000000 0.000000
		CHANNELS 3 Zrotation Yrotation Xrotation
		JOINT LeftUpLeg
		{
			OFFSET 1.363060 -1.794630 0.839290
			CHANNELS 3 Zrotation Yrotation Xrotation
			JOINT LeftLeg
			{
				OFFSET 2.448110 -6.726130 0.000000
				CHANNELS 3 Zrotation Yrotation Xrotation
				JOINT LeftFoot
				{
					OFFSET 2.562200 -7.039590 0.000000
					CHANNELS 3 Zrotation Yrotation Xrotation
					JOINT LeftToeBase
					{
						OFFSET 0.157640 -0.433110 2.322550
						CHANNELS 3 Zrotation Yrotation Xrotation
						End Site
						{
							OFFSET 0.000000 0.000000 0.000000
						}
					}
				}
			}
		}
	}
	JOINT RHipJoint
	{
		OFFSET 0.000000 0.000000 0.000000
		CHANNELS 3 Zrotation Yrotation Xrotation
		JOINT RightUpLeg
		{
			OFFSET -1.305520 -1.794630 0.839290
			CHANNELS 3 Zrotation Yrotation Xrotation
			JOINT RightLeg
			{
				OFFSET -2.542530 -6.985550 0.000000
				CHANNELS 3 Zrotation Yrotation Xrotation
				JOINT RightFoot
				{
					OFFSET -2.568260 -7.056230 0.000000
					CHANNELS 3 Zrotation Yrotation Xrotation
					JOINT RightToeBase
					{
						OFFSET -0.164730 -0.452590 2.363150
						CHANNELS 3 Zrotation Yrotation Xrotation
						End Site
						{
							OFFSET 0.000000 0.000000 0.000000
						}
					}
				}
			}
		}
	}
	JOINT LowerBack
	{
		OFFSET 0.000000 0.000000 0.000000
		CHANNELS 3 Zrotation Yrotation Xrotation
		JOINT Spine
		{
			OFFSET 0.028270 2.035590 -0.193380
			CHANNELS 3 Zrotation Yrotation Xrotation
			JOINT Spine1
			{
				OFFSET 0.056720 2.048850 -0.042750
				CHANNELS 3 Zrotation Yrotation Xrotation
				JOINT Neck
				{
					OFFSET 0.000000 0.000000 0.000000
					CHANNELS 3 Zrotation Yrotation Xrotation
					JOINT Neck1
					{
						OFFSET -0.054170 1.746240 0.172020
						CHANNELS 3 Zrotation Yrotation Xrotation
						JOINT Head
						{
							OFFSET 0.104070 1.761360 -0.123970
							CHANNELS 3 Zrotation Yrotation Xrotation
							End Site
							{
								OFFSET 0.000000 0.000000 0.000000
							}
						}
					}
				}
				JOINT LeftShoulder
				{
					OFFSET 0.000000 0.000000 0.000000
					CHANNELS 3 Zrotation Yrotation Xrotation
					JOINT LeftArm
					{
						OFFSET 3.362410 1.200890 -0.311210
						CHANNELS 3 Zrotation Yrotation Xrotation
						JOINT LeftForeArm
						{
							OFFSET 4.983000 -0.000000 -0.000000
							CHANNELS 3 Zrotation Yrotation Xrotation
							JOINT LeftHand
							{
								OFFSET 3.483560 -0.000000 -0.000000
								CHANNELS 3 Zrotation Yrotation Xrotation
								JOINT LeftFingerBase
								{
									OFFSET 0.000000 0.000000 0.000000
									CHANNELS 3 Zrotation Yrotation Xrotation
									JOINT LeftHandIndex1
									{
										OFFSET 0.715260 -0.000000 -0.000000
										CHANNELS 3 Zrotation Yrotation Xrotation
										End Site
										{
											OFFSET 0.000000 0.000000 0.000000
										}
									}
								}
								JOINT LThumb
								{
									OFFSET 0.000000 0.000000 0.000000
									CHANNELS 3 Zrotation Yrotation Xrotation
									End Site
									{
										OFFSET 0.000000 0.000000 0.000000
									}
								}
							}
						}
					}
				}
				JOINT RightShoulder
				{
					OFFSET 0.000000 0.000000 0.000000
					CHANNELS 3 Zrotation Yrotation Xrotation
					JOINT RightArm
					{
						OFFSET -3.136600 1.374050 -0.404650
						CHANNELS 3 Zrotation Yrotation Xrotation
						JOINT RightForeArm
						{
							OFFSET -5.241900 -0.000000 -0.000000
							CHANNELS 3 Zrotation Yrotation Xrotation
							JOINT RightHand
							{
								OFFSET -3.444170 -0.000000 -0.000000
								CHANNELS 3 Zrotation Yrotation Xrotation
								JOINT RightFingerBase
								{
									OFFSET 0.000000 0.000000 0.000000
									CHANNELS 3 Zrotation Yrotation Xrotation
									JOINT RightHandIndex1
									{
										OFFSET -0.622530 -0.000000 -0.000000
										CHANNELS 3 Zrotation Yrotation Xrotation
										End Site
										{
											OFFSET 0.000000 0.000000 0.000000
										}
									}
								}
								JOINT RThumb
								{
									OFFSET 0.000000 0.000000 0.000000
									CHANNELS 3 Zrotation Yrotation Xrotation
									End Site
									{
										OFFSET 0.000000 0.000000 0.000000
									}
								}
							}
						}
					}
				}
			}
		}
	}
}
MOTION
Frames: 4
Frame Time: 0.008333
15.534000 16.840790 -23.624400 -175.573022 -56.452819 -179.871779 -8.261420 28.138379 -5.782671 -30.415732 -7.743425 -17.839199 6.779771 4.310691 32.728334 33.898002 0.155718 -6.351063 -3.596777 3.121636 -6.851769 1.637109 -26.712913 -1.837016 11.710792 -10.053405 -9.928773 -9.084594 -15.049370 53.824650 -30.107996 14.452149 2.271488 10.571978 -14.985306 -19.370147 0.968271 6.474209 11.436722 18.176343 6.594994 17.759603 -14.481726 -10.193607 -25.214132 -12.834338 15.592027 -21.028450 7.915268 15.172144 18.888949 1.499252 5.686298 -3.328629 -0.394116 16.079184 9.184674 -65.161568 -7.343312 44.823358 0.382973 -21.637663 7.241502 5.606032 8.701963 4.359504 0.079764 15.799466 -0.000000 0.000000 0.000000 0.000000 0.000000 0.000000 0.000000 -0.705901 -44.689069 -0.919192 67.863894 8.881857 -11.414885 22.115658 27.064019 -43.993714 19.586386 10.596479 -38.446789 -0.536817 -4.721300 -0.000000 0.000000 0.000000 0.000000 0.000000 0.000000 0.000000 
15.446100 16.839875 -23.712900 -175.747031 -57.315031 -179.822054 -8.177114 28.043003 -5.610255 -30.700202 -8.305608 -17.602967 7.456313 4.014947 33.817392 33.314555 0.094872 -6.551504 -3.843837 3.316209 -6.981564 1.884884 -26.580946 -1.794362 11.035260 -8.961301 -11.360743 -9.512527 -15.816022 56.695201 -30.757342 15.362037 5.553741 10.820052 -16.688778 -18.513667 0.949104 6.341585 11.458193 17.578515 6.428235 17.792608 -14.235019 -10.086681 -25.096219 -12.882975 15.651531 -20.963149 7.898855 15.211273 18.748085 1.486464 5.693680 -3.416978 -0.264347 16.105306 9.231495 -65.003837 -7.342954 44.889134 0.641293 -21.006277 7.422292 5.514304 9.056282 4.411223 -0.069188 15.827279 -0.000000 0.000000 0.000000 0.000000 0.000000 0.000000 0.000000 -0.496653 -44.656689 -0.883836 68.005144 8.872848 -11.837853 22.191156 27.374029 -44.013789 19.698044 10.884043 -38.562637 -0.525586 -4.586537 -0.000000 0.000000 0.000000 0.000000 0.000000 0.000000 0.000000 
15.364050 16.838750 -23.801100 -175.889894 -58.151591 -179.780503 -8.109779 27.997053 -5.459629 -30.836210 -8.637952 -17.466444 7.893488 3.815424 34.805212 32.971904 -0.131057 -6.802112 -4.018480 3.439248 -7.113611 2.137470 -26.518266 -1.782438 10.511392 -7.817109 -12.813206 -10.226212 -16.422203 59.556035 -32.075834 16.537872 8.316451 10.929173 -18.042896 -17.153886 0.900302 6.219252 11.562327 16.956253 6.289995 17.668747 -13.941135 -9.940035 -24.901220 -12.917097 15.682378 -20.881556 7.840936 15.230205 18.565392 1.461898 5.712993 -3.520578 -0.060707 16.141979 9.270510 -64.919043 -7.305152 44.804800 0.910161 -20.596497 7.692959 5.524538 9.336909 4.565639 -0.164553 15.839489 -0.000000 0.000000 0.000000 0.000000 0.000000 0.000000 0.000000 -0.341852 -44.566494 -0.763423 68.265873 8.867512 -12.387159 22.237669 27.693886 -44.011977 19.766950 11.137526 -38.642089 -0.551489 -4.512378 -0.000000 0.000000 0.000000 0.000000 0.000000 0.000000 0.000000 
15.285150 16.838975 -23.890200 -175.987452 -59.000747 -179.789557 -8.061565 27.977124 -5.262700 -30.771692 -8.765374 -17.401692 8.057600 3.713105 35.596719 32.827513 -0.493286 -7.187832 -4.096703 3.480291 -7.195514 2.373297 -26.598592 -1.849844 10.090257 -6.800989 -14.302043 -11.139481 -16.874504 62.294737 -34.338189 18.178385 11.053897 10.892121 -19.157613 -15.877627 0.732709 6.148843 11.686373 16.496852 6.209689 17.581364 -13.676088 -9.772629 -24.670325 -12.923067 15.676151 -20.855162 7.769497 15.225202 18.386656 1.435946 5.725643 -3.606494 0.186690 16.138669 9.216428 -64.887615 -7.340302 44.613881 1.087838 -20.334247 7.922028 5.485041 9.523618 4.662784 -0.258494 15.823937 -0.000000 0.000000 0.000000 0.000000 0.000000 0.000000 0.000000 -0.287397 -44.368681 -0.552198 68.534790 8.786226 -12.884756 22.295088 27.960717 -44.087439 19.954476 11.431015 -38.831758 -0.510822 -4.329662 -0.000000 0.000000 0.000000 0.000000 0.000000 0.000000 0.000000 
